<svg width="69" height="69" viewBox="0 0 69 69" fill="none" xmlns="http://www.w3.org/2000/svg">
<path d="M57.5121 0H11.4881C5.14348 0 0 5.14332 0 11.4879V57.5121C0 63.8567 5.14348 69 11.4881 69H57.5121C63.8567 69 69.0001 63.8567 69.0001 57.5121V11.4879C69.0001 5.14332 63.8567 0 57.5121 0Z" fill="#EE7AAA"/>
<path d="M11.9591 21.3633H16.6336C19.1161 21.3633 20.439 22.4323 20.439 24.1175C20.439 25.3315 19.5875 26.2375 18.3372 26.5093V26.618C19.7143 26.6542 20.8557 27.6689 20.8557 29.2272C20.8557 31.003 19.4059 32.3076 17.0141 32.3076H11.9409V21.3814L11.9591 21.3633ZM17.4852 24.7154C17.4852 24.0269 16.9417 23.6282 16.1625 23.6282H14.8398V25.8026H16.1262C16.9235 25.8026 17.5034 25.404 17.5034 24.7154H17.4852ZM17.8298 28.8648C17.8298 28.0676 17.2499 27.6146 16.3439 27.6146H14.8398V30.0064H16.3076C17.3404 30.0064 17.848 29.6077 17.848 28.8829L17.8298 28.8648Z" fill="white"/>
<path d="M27.5779 32.4525C24.5882 32.4525 22.2871 30.4593 22.2871 26.8354C22.2871 23.2114 24.5882 21.2183 27.5779 21.2183C30.5677 21.2183 32.8688 23.1933 32.8688 26.8354C32.8688 30.4775 30.5496 32.4525 27.5779 32.4525ZM27.5779 23.7188C26.074 23.7188 25.2404 24.8241 25.2404 26.8354C25.2404 28.8467 26.074 29.952 27.5779 29.952C29.0819 29.952 29.8973 28.8467 29.8973 26.8354C29.8973 24.8241 29.0638 23.7188 27.5779 23.7188Z" fill="white"/>
<path d="M39.9357 23.7188C38.4137 23.7188 37.5256 24.8603 37.5256 26.8172C37.5256 28.7742 38.3593 29.9338 39.9176 29.9338C41.2766 29.9338 41.983 29.2996 42.0012 28.2668H39.972V26.2193H44.7735V27.7051C44.7735 30.6767 42.7442 32.4344 39.8813 32.4344C36.7103 32.4344 34.5542 30.2962 34.5542 26.8354C34.5542 23.3745 36.9278 21.2001 39.8632 21.2001C42.4362 21.2001 44.411 22.7584 44.6466 24.9509H41.7295C41.5302 24.1718 40.8779 23.7188 39.9176 23.7188H39.9357Z" fill="white"/>
<path d="M51.8225 32.4525C48.8328 32.4525 46.5312 30.4593 46.5312 26.8354C46.5312 23.2114 48.8328 21.2183 51.8225 21.2183C54.8123 21.2183 57.1133 23.1933 57.1133 26.8354C57.1133 30.4775 54.7942 32.4525 51.8225 32.4525ZM51.8225 23.7188C50.3186 23.7188 49.485 24.8241 49.485 26.8354C49.485 28.8467 50.3186 29.952 51.8225 29.952C53.3265 29.952 54.1415 28.8467 54.1415 26.8354C54.1415 24.8241 53.3083 23.7188 51.8225 23.7188Z" fill="white"/>
<path d="M23.1567 38.124H30.7851V40.4433H26.0379V42.4184H30.314V44.7377H26.0379V49.0321H23.1749V38.1059L23.1567 38.124Z" fill="white"/>
<path d="M35.1883 49.0502H32.3257V38.124H35.1883V49.0502Z" fill="white"/>
<path d="M36.7286 38.124H46.1508V40.4434H42.8528V49.0502H40.0084V40.4434H36.7104V38.124H36.7286Z" fill="white"/>
</svg>
