<svg width="66" height="67" viewBox="0 0 66 67" fill="none" xmlns="http://www.w3.org/2000/svg">
<path d="M55.0116 0.398438H10.9884C4.91969 0.398438 0 5.3172 0 11.3848V55.3995C0 61.4671 4.91969 66.3859 10.9884 66.3859H55.0116C61.0803 66.3859 66 61.4671 66 55.3995V11.3848C66 5.3172 61.0803 0.398438 55.0116 0.398438Z" fill="#FF84CD"/>
<path d="M11.4388 20.8291H15.9105C18.285 20.8291 19.5502 21.8515 19.5502 23.4631C19.5502 24.6241 18.7356 25.4905 17.5397 25.7504V25.8544C18.8569 25.8891 19.9488 26.8595 19.9488 28.3497C19.9488 30.0479 18.5623 31.2956 16.2745 31.2956H11.4215V20.8464L11.4388 20.8291ZM16.7251 24.0349C16.7251 23.3764 16.2051 22.9952 15.4599 22.9952H14.1946V25.0746H15.4252C16.1878 25.0746 16.7424 24.6934 16.7424 24.0349H16.7251ZM17.0544 28.0032C17.0544 27.2407 16.4998 26.8075 15.6332 26.8075H14.1946V29.0949H15.5985C16.5864 29.0949 17.0717 28.7136 17.0717 28.0205L17.0544 28.0032Z" fill="white"/>
<path d="M26.379 31.4332C23.5193 31.4332 21.3181 29.5271 21.3181 26.0613C21.3181 22.5956 23.5193 20.6895 26.379 20.6895C29.2388 20.6895 31.44 22.5783 31.44 26.0613C31.44 29.5444 29.2215 31.4332 26.379 31.4332ZM26.379 23.0808C24.9405 23.0808 24.1432 24.1379 24.1432 26.0613C24.1432 27.9848 24.9405 29.0419 26.379 29.0419C27.8176 29.0419 28.5975 27.9848 28.5975 26.0613C28.5975 24.1379 27.8003 23.0808 26.379 23.0808Z" fill="white"/>
<path d="M38.2167 23.0815C36.7608 23.0815 35.9115 24.1732 35.9115 26.0447C35.9115 27.9162 36.7088 29.0253 38.1993 29.0253C39.4992 29.0253 40.1752 28.4187 40.1925 27.431H38.2513V25.4729H42.8443V26.8938C42.8443 29.7357 40.9031 31.4166 38.1647 31.4166C35.1316 31.4166 33.0691 29.3718 33.0691 26.0621C33.0691 22.7523 35.3396 20.6729 38.1473 20.6729C40.6085 20.6729 42.4977 22.1631 42.723 24.2599H39.9325C39.7419 23.5147 39.1179 23.0815 38.1993 23.0815H38.2167Z" fill="white"/>
<path d="M49.5866 31.4332C46.7268 31.4332 44.5256 29.5271 44.5256 26.0613C44.5256 22.5956 46.7268 20.6895 49.5866 20.6895C52.4463 20.6895 54.6475 22.5783 54.6475 26.0613C54.6475 29.5444 52.429 31.4332 49.5866 31.4332ZM49.5866 23.0808C48.148 23.0808 47.3507 24.1379 47.3507 26.0613C47.3507 27.9848 48.148 29.0419 49.5866 29.0419C51.0251 29.0419 51.8051 27.9848 51.8051 26.0613C51.8051 24.1379 51.0078 23.0808 49.5866 23.0808Z" fill="white"/>
<path d="M22.1674 36.8582H29.4641V39.0762H24.9231V40.965H29.0135V43.1831H24.9231V47.29H22.1847V36.8408L22.1674 36.8582Z" fill="white"/>
<path d="M33.6584 47.3066H30.9199V36.8574H33.6584V47.3066Z" fill="white"/>
<path d="M35.1489 36.8574H44.1615V39.0755H41.0071V47.3066H38.286V39.0755H35.1316V36.8574H35.1489Z" fill="white"/>
</svg>
